<?xml version="1.0" encoding="UTF-8" standalone="no"?>
<!-- Created with Inkscape (http://www.inkscape.org/) -->

<svg
   width="200mm"
   height="200mm"
   viewBox="0 0 200 200"
   version="1.1"
   id="svg5"
   inkscape:version="1.1 (c68e22c387, 2021-05-23)"
   xmlns:inkscape="http://www.inkscape.org/namespaces/inkscape"
   xmlns:sodipodi="http://sodipodi.sourceforge.net/DTD/sodipodi-0.dtd"
   xmlns="http://www.w3.org/2000/svg"
   xmlns:svg="http://www.w3.org/2000/svg">
  <sodipodi:namedview
     id="namedview7"
     pagecolor="#ffffff"
     bordercolor="#666666"
     borderopacity="1.0"
     inkscape:pageshadow="2"
     inkscape:pageopacity="0.0"
     inkscape:pagecheckerboard="0"
     inkscape:document-units="mm"
     showgrid="true"
     inkscape:zoom="0.77655208"
     inkscape:cx="377.30888"
     inkscape:cy="377.95276"
     inkscape:window-width="1600"
     inkscape:window-height="837"
     inkscape:window-x="-8"
     inkscape:window-y="-8"
     inkscape:window-maximized="1"
     inkscape:current-layer="layer1">
    <inkscape:grid
       type="xygrid"
       id="grid824" />
  </sodipodi:namedview>
  <defs
     id="defs2" />
  <g
     inkscape:label="Layer 1"
     inkscape:groupmode="layer"
     id="layer1">
    <g
       id="g13583">
      <path
         id="rect1432"
         style="fill:#f7e8e8;stroke:#808080;stroke-width:1.738;stroke-linecap:round;stroke-linejoin:round;paint-order:markers fill stroke"
         d="M 10.583333,5.2916665 H 190.5 c 2.93158,0 5.29167,2.3600835 5.29167,5.2916665 V 190.5 c 0,2.93158 -2.36009,5.29167 -5.29167,5.29167 H 10.583333 c -2.931583,0 -5.2916665,-2.36009 -5.2916665,-5.29167 V 10.583333 c 0,-2.931583 2.3600835,-5.2916665 5.2916665,-5.2916665 z" />
      <g
         id="g1216"
         transform="matrix(0.06940897,0,0,0.06940897,55.706281,55.243858)">
        <g
           id="g1110">
          <path
             id="polygon1096"
             style="fill:none"
             d="M 1098.757,1646.774 H 991.272 l 107.49,1.001 z" />
          <path
             id="polygon1098"
             style="fill:#3e5eb9"
             d="m 277.35,1422.708 82.613,108.734 304.152,112.286 327.157,3.046 h 107.485 l -1.007,-204.69 5.733,-55.3 2.548,-40.01 H 201.417 l 10.593,19.114 z" />
          <path
             id="polygon1100"
             style="fill:#3e5eb9"
             d="m 338.72,249.081 -13.151,60.021 -15.79,37.672 h 888.211 l 0.366,-9.895 -44.405,-7.271 -25.326,-7.441 -6.078,3.382 -24.143,-43.628 -94.345,46.404 -406.372,-280.55 -90.706,24.952 -44.847,65.416 z" />
          <path
             id="polygon1102"
             style="fill:#3e5eb9"
             d="M 1098.404,281.921 V 281.92 Z" />
          <path
             id="polygon1104"
             style="fill:#ffd900"
             d="m 1206.398,446.774 -8.887,-87.065 0.479,-12.935 H 309.779 l -16.603,39.61 -30.449,60.39 z" />
          <path
             fill="#ffd900"
             d="m 1106.854,1333.844 13.151,-68.114 -3.035,-18.209 0.117,-0.748 H 203.191 c 0.522,3.952 0.252,8.156 0.21,11.901 l -0.253,22.322 -0.591,6.172 -15.617,33.483 14.477,26.122 h 904.615 z"
             id="path1106" />
          <path
             fill="#b10c0c"
             d="m 1132.338,1149.095 -3.196,-12.141 c 4.156,-0.299 8.798,-2.177 14.339,-3.164 14.744,-2.626 8.058,10.787 18.994,12.682 6.859,1.189 7.833,1.094 12.157,-4.143 2.03,-2.458 6.856,-5.417 10.13,-5.074 8.238,0.864 13.734,-5.879 21.948,-4.988 9.295,1.007 11.747,17.308 14.604,24.774 5.166,13.504 9.813,9.236 19.035,10.527 l -0.302,-315.917 -51.01,-118.266 -2.7,-100.59 25.386,-133.852 -5.325,-52.17 H 262.727 l -71.699,142.202 -62.381,61.37 -34.057,63.056 -20.57,24.616 -23.941,54.289 -12.476,99.473 -1.641,151.479 10.802,108.692 10.929,19.636 c 10.435,-2.031 11.379,-4.69 17.14,-12.768 3.858,-5.408 2.203,-5.216 8.357,-4.904 2.518,0.127 3.53,-5.432 5.657,-6.933 4.244,-2.997 7.057,2.482 11.65,-0.761 4.605,-3.251 7.743,-7.459 12.409,-10.738 3.038,-0.759 6.055,-0.458 8.864,-1.945 3.718,-1.969 2.447,-6.966 2.617,-10.569 0.242,-5.135 -0.151,-8.19 3.176,-11.234 0.273,-0.25 0.203,-0.145 0.226,0.178 l 1.41,19.681 8.017,48.618 c 4.907,2.8 1.908,3.679 4.055,7.272 1.614,2.7 7.527,2.768 10.046,5.327 l 11.818,12.007 c 2.562,2.602 6.371,4.378 8.611,7.187 1.201,1.505 1.41,4.173 3.039,4.989 1.589,0.795 3.406,-0.445 5.065,1.014 l 17.39,15.304 c 0.71,1.117 1.809,3.039 2.87,3.89 0.347,0.977 0.924,1.708 1.013,2.79 1.139,2.06 1.751,4.376 2.069,6.785 h 913.896 z"
             id="path1108" />
        </g>
        <g
           id="g1214">
          <g
             id="g1138">
            <g
               id="e_3_">
              <path
                 fill="#ffffff"
                 stroke="#000000"
                 stroke-width="2.9089"
                 d="m 1048.951,747.829 -52.562,18.551 52.562,18.551 52.562,-18.551 z"
                 id="path1112" />
              <path
                 fill="#ffd900"
                 stroke="#000000"
                 stroke-width="2.9089"
                 d="m 254.852,760.209 h 759.521 c 3.713,0 6.723,2.768 6.723,6.184 v 0 c 0,3.415 -3.01,6.184 -6.723,6.184 H 254.852 c -3.713,0 -6.723,-2.768 -6.723,-6.184 v 0 c 0,-3.415 3.01,-6.184 6.723,-6.184 z"
                 id="path1114" />
              <path
                 fill="#ffd900"
                 stroke="#000000"
                 stroke-width="2.9089"
                 d="m 1002.611,772.568 c 3.089,0 6.188,-3.093 6.188,-6.184 0,-3.091 -3.097,-6.184 -6.186,-6.184"
                 id="path1116" />
              <path
                 fill="#ffd900"
                 stroke="#000000"
                 stroke-width="2.9089"
                 d="m 996.421,772.568 c 3.089,0 6.188,-3.093 6.188,-6.184 0,-3.091 -3.097,-6.184 -6.186,-6.184"
                 id="path1118" />
              <path
                 fill="#ffd900"
                 stroke="#000000"
                 stroke-width="2.9089"
                 d="m 990.231,772.568 c 3.089,0 6.188,-3.093 6.188,-6.184 0,-3.091 -3.097,-6.184 -6.186,-6.184"
                 id="path1120" />
            </g>
            <g
               id="g1134">
              <g
                 id="e_2_">
                <path
                   fill="#ffffff"
                   stroke="#000000"
                   stroke-width="2.9089"
                   d="m 998.585,784.948 -52.562,18.551 52.562,18.551 52.562,-18.551 z"
                   id="path1123" />
                <path
                   fill="#ffd900"
                   stroke="#000000"
                   stroke-width="2.9089"
                   d="m 204.486,797.328 h 759.521 c 3.713,0 6.723,2.768 6.723,6.184 v 0 c 0,3.415 -3.01,6.184 -6.723,6.184 H 204.486 c -3.713,0 -6.723,-2.768 -6.723,-6.184 v 0 c 0.001,-3.415 3.011,-6.184 6.723,-6.184 z"
                   id="path1125" />
                <path
                   fill="#ffd900"
                   stroke="#000000"
                   stroke-width="2.9089"
                   d="m 952.246,809.687 c 3.089,0 6.188,-3.093 6.188,-6.184 0,-3.091 -3.097,-6.184 -6.186,-6.184"
                   id="path1127" />
                <path
                   fill="#ffd900"
                   stroke="#000000"
                   stroke-width="2.9089"
                   d="m 946.056,809.687 c 3.089,0 6.188,-3.093 6.188,-6.184 0,-3.091 -3.097,-6.184 -6.186,-6.184"
                   id="path1129" />
                <path
                   fill="#ffd900"
                   stroke="#000000"
                   stroke-width="2.9089"
                   d="m 939.866,809.687 c 3.089,0 6.188,-3.093 6.188,-6.184 0,-3.091 -3.097,-6.184 -6.186,-6.184"
                   id="path1131" />
              </g>
            </g>
            <path
               fill="#ffd900"
               stroke="#000000"
               stroke-width="3.1167"
               d="m 120.833,837.521 h 1032.956 c 5.049,0 9.142,4.153 9.142,9.276 v 0 c 0,5.123 -4.093,9.275 -9.142,9.275 H 120.833 c -5.049,0 -9.142,-4.153 -9.142,-9.275 v 0 c 0,-5.123 4.093,-9.276 9.142,-9.276 z"
               id="path1136" />
          </g>
          <path
             fill="#ffffff"
             stroke="#000000"
             stroke-width="2.9089"
             d="m 940.732,846.785 c -61.839,61.834 -144.295,185.511 -309.204,185.511 -144.295,0 -247.346,-123.677 -309.204,-185.511 61.839,-61.845 164.9,-185.522 309.204,-185.522 164.9,-0.001 247.345,123.677 309.204,185.522 z"
             id="path1140" />
          <path
             d="m 609.949,725.796 c 16.452,18.503 2.714,25.964 20.129,27.178 18.365,1.348 7.954,19.553 23.401,20.185 10.8,0.472 -1.078,43.614 9.318,57.852 10.59,14.841 19.46,4.348 19.646,15.071 0.184,11.09 -28.823,9.971 -29.332,44.132 -0.851,19.687 -24.479,20.947 -25.607,33.615 -1.403,11.915 46.549,18.603 45.909,29.269 -0.658,10.634 -51.776,8.969 -54.001,21.096 -1.141,10.893 70.226,19.821 75.965,51.324 -10.649,3.483 -40.948,6.762 -63.847,6.779 -144.271,0.104 -247.346,-123.688 -309.182,-185.522 61.839,-61.845 164.9,-185.522 309.204,-185.522 0,0 -42.831,39.136 -21.581,64.531 z"
             id="path1142" />
          <g
             id="g1212">
            <g
               id="g1155">
              <g
                 id="b_7_">
                <path
                   id="a_15_"
                   stroke="#ffffff"
                   stroke-width="19.9902"
                   d="m 445.268,830.286 v -49.471 m 29.976,-0.001 v 49.471 m 29.999,-49.471 v 49.471" />
                <g
                   id="g1146">
                  <path
                     id="a_14_"
                     stroke="#ffffff"
                     stroke-width="19.9902"
                     d="m 445.268,912.748 v -49.471 m 29.976,0 v 49.471 m 29.999,-49.471 v 49.471" />
                </g>
              </g>
              <g
                 id="c_3_">
                <g
                   id="b_6_">
                  <path
                     id="a_13_"
                     stroke="#ffffff"
                     stroke-width="19.9902"
                     d="m 535.219,830.286 v -49.471 m 29.977,-0.001 v 49.471 m 29.998,-49.471 v 49.471" />
                  <g
                     id="g1151">
                    <path
                       id="a_12_"
                       stroke="#ffffff"
                       stroke-width="19.9902"
                       d="m 535.219,912.748 v -49.471 m 29.977,0 v 49.471 m 29.998,-49.471 v 49.471" />
                  </g>
                </g>
              </g>
            </g>
            <g
               id="g1210">
              <g
                 id="g1208">
                <g
                   id="g1168">
                  <g
                     id="b_5_">
                    <path
                       id="a_11_"
                       stroke="#000000"
                       stroke-width="19.9902"
                       d="m 672.008,830.286 v -49.471 m 29.977,-0.001 v 49.471 m 29.998,-49.471 v 49.471" />
                    <g
                       id="g1159">
                      <path
                         id="a_10_"
                         stroke="#000000"
                         stroke-width="19.9902"
                         d="m 672.008,912.748 v -49.471 m 29.977,0 v 49.471 m 29.998,-49.471 v 49.471" />
                    </g>
                  </g>
                  <g
                     id="c_2_">
                    <g
                       id="b_4_">
                      <path
                         id="a_9_"
                         stroke="#000000"
                         stroke-width="19.9902"
                         d="m 761.96,830.286 v -49.471 m 29.977,-0.001 v 49.471 m 29.998,-49.471 v 49.471" />
                      <g
                         id="g1164">
                        <path
                           id="a_8_"
                           stroke="#000000"
                           stroke-width="19.9902"
                           d="m 761.96,912.748 v -49.471 m 29.977,0 v 49.471 m 29.998,-49.471 v 49.471" />
                      </g>
                    </g>
                  </g>
                </g>
                <g
                   id="g1206">
                  <path
                     fill="#3d5da7"
                     stroke="#000000"
                     stroke-width="2.4674"
                     d="m 1088.992,839.426 c -9.367,16.224 7.188,-5.396 47.584,21.765 7.487,5.045 14.027,18.373 14.027,27.615 -1.9,-1.271 -3.312,-4.099 -5.404,-5.937 -2.931,2.937 2.799,16.399 3.636,22.763 -6.316,-3.534 -5.708,-5.208 -7.805,-9.551 0.418,5.251 -1.084,19.711 1.428,25.28 -4.978,-1.422 -4.647,-5.428 -7.246,-6.233 1.768,6.303 -1.541,13.162 -0.662,20.248 -2.909,-2.879 -6.008,-5.134 -7.359,-6.296 -0.227,3.374 -5.595,12.242 -5.716,15.432 -2.467,-1.491 -3.138,-3.816 -3.55,-5.381 -3.067,3.855 -13.969,18.09 -14.668,22.432 -8.4,-7.419 -29.918,-25.486 -32.719,-35.076 -2.476,5.443 -6.06,7.281 -13.144,11.255 -2.799,-15.198 -13.268,-32.282 -7.668,-45.309 -3.967,2.353 -7.233,4.705 -11.198,7.599 3.757,-22.012 22.914,-47.822 50.471,-60.605 h -0.01 z"
                     id="path1170" />
                  <path
                     fill="#a70000"
                     d="m 1054.058,919.768 c 3.889,-7.774 7.471,-10.24 9.984,-15.246 4.439,-8.798 5.073,-15.798 8.941,-14.772 3.868,1.026 3.864,4.63 -1.147,13.281 -5.01,8.65 -7.393,10.499 -17.778,16.737 z"
                     id="path1172" />
                  <path
                     fill="#a70000"
                     d="m 1080.356,938.295 c -0.5,-5.92 1.216,-8.391 0.905,-12.203 -0.535,-6.707 -3.277,-11.311 0.29,-11.638 3.567,-0.327 5.233,1.961 5.244,8.72 0.011,6.759 -1.035,8.534 -6.437,15.122 z"
                     id="path1174" />
                  <path
                     fill="#a70000"
                     d="m 1100.311,949.896 c -1.558,-8.264 -0.392,-11.928 -1.39,-17.252 -1.736,-9.367 -5.171,-15.534 -1.866,-16.391 3.305,-0.857 5.301,2.173 6.552,11.672 1.252,9.5 0.592,12.11 -3.296,21.971 z"
                     id="path1176" />
                  <path
                     fill="#a70000"
                     d="m 1121.068,891.999 c -4.874,-3.699 -7.718,-3.948 -10.861,-6.324 -5.536,-4.171 -8.337,-8.636 -10.118,-6.42 -1.781,2.216 -0.517,4.64 5.285,8.489 5.801,3.848 7.766,4.151 15.696,4.255 v 0 z"
                     id="path1178" />
                  <path
                     fill="#a70000"
                     d="m 1117.626,919.421 c -2.569,-5.335 -5.272,-6.688 -6.935,-10.121 -2.937,-6.032 -2.941,-11.25 -6.127,-9.913 -3.186,1.338 -3.441,4.069 -0.035,9.909 3.408,5.838 5.191,6.896 13.097,10.125 z"
                     id="path1180" />
                  <path
                     fill="#3d5da7"
                     stroke="#000000"
                     stroke-width="3.0792"
                     d="m 157.08,855.053 c -0.524,-4.725 0.487,-5.29 -2.42,-8.852 4.231,1.77 4.392,6.476 9.536,3.136 1.89,-0.978 2.714,-1.009 0.418,-6.257 5.366,0.249 22.934,6.275 25.747,6.413 7.387,0.34 20.873,-7.761 30.234,2.199 8.984,9.082 5.985,18.508 5.985,31.085 -3.61,-1.729 -1.87,-2.582 -5.701,-7.08 2.872,10.993 -0.154,30.814 -0.154,42.474 -1.474,-2.812 -1.258,-1.591 -2.699,-4.502 -3.831,10.642 -8.422,12.833 -8.422,25.41 -1.383,-4.933 -0.048,-3.889 -1.587,-6.484 -3.723,8.08 -28.7,14.984 -19.075,23.129 -8.688,-5.093 -12.497,-4.558 -16.436,-9.14 -1.697,1.095 -3.045,3.169 -4.623,6.01 -15.274,-7.028 -9.813,-22.185 -21.778,-32.31 -2.071,4.244 -1.128,3.63 -3.366,10.538 -2.422,-9.597 -3.084,-15.694 -5.809,-22.75 -2.351,3.911 -2.141,2.411 -6.409,8.322 -1.766,-11.69 -4.64,-14.449 -3.504,-22.185 -4.537,3.201 -1.567,1.905 -6.101,5.844 4.296,-29.955 22.852,-52.09 36.167,-45.002 z"
                     id="path1182" />
                  <path
                     fill="#a70000"
                     d="m 138.289,903.946 c 3.935,-9.644 7.482,-12.672 10.025,-18.882 4.491,-10.913 5.223,-19.637 8.995,-18.306 3.773,1.331 3.712,5.824 -1.335,16.547 -5.047,10.724 -7.409,12.997 -17.685,20.64 z"
                     id="path1184" />
                  <path
                     fill="#a70000"
                     d="m 153.188,928.079 c 1.578,-8.647 4.067,-11.796 5.091,-17.365 1.816,-9.792 0.803,-17.083 4.309,-16.698 3.506,0.383 4.298,4.08 1.965,13.82 -2.333,9.742 -3.943,12.047 -11.367,20.243 z"
                     id="path1186" />
                  <path
                     fill="#a70000"
                     d="m 171.01,944.853 c 0.444,-8.383 2.409,-11.655 2.703,-17.055 0.532,-9.497 -1.296,-16.296 2.048,-16.335 3.344,-0.039 4.534,3.376 3.511,12.885 -1.024,9.508 -2.262,11.88 -8.262,20.505 z"
                     id="path1188" />
                  <path
                     fill="#a70000"
                     d="m 209.278,890.029 c -7.318,-7.29 -11.742,-8.651 -16.462,-13.339 -8.316,-8.233 -12.333,-15.964 -15.294,-13.224 -2.961,2.74 -1.18,6.848 7.575,14.683 8.756,7.835 11.801,8.978 24.181,11.88 z"
                     id="path1190" />
                  <path
                     fill="#a70000"
                     d="m 204.82,918.209 c -4.766,-7.32 -8.264,-9.216 -11.341,-13.926 -5.426,-8.277 -7.292,-15.389 -10.367,-13.627 -3.078,1.762 -2.389,5.478 3.491,13.501 5.881,8.021 8.246,9.497 18.218,14.053 v -0.001 z"
                     id="path1192" />
                  <path
                     fill="#3d5da7"
                     stroke="#000000"
                     stroke-width="2.3837"
                     d="m 531.555,694.196 c -8.567,16.568 14.999,-5.511 51.941,22.226 6.846,5.153 16.659,25.512 16.659,34.948 -7.865,-1.673 -21.793,-9.437 -21.793,-9.437 0,0 16.345,16.371 16.345,35.245 -5.775,-3.61 -8.664,-3.069 -10.584,-7.502 0,6.11 5.136,10.004 5.136,19.44 -4.169,-3.327 -7.699,-5.543 -11.224,-7.489 5.448,9.437 -9.928,27.743 -2.234,33.853 -13.458,-1.946 -27.228,-10.545 -32.676,-19.982 -2.887,1.946 -3.201,5.002 -3.314,8.259 0.424,0.353 -20.486,-15.521 -18.564,-21.618 -2.805,3.935 -3.199,6.097 -3.84,10.532 -7.681,-7.575 -14.722,-15.151 -17.285,-24.945 -3.413,4.435 -3.628,4.435 -7.041,8.87 -2.56,-15.521 -2.56,-14.967 2.56,-28.269 -3.628,2.402 -6.614,4.805 -10.242,7.761 3.435,-22.477 20.956,-48.835 46.155,-61.888 z"
                     id="path1194" />
                  <path
                     fill="#a70000"
                     d="m 510.431,775.144 c 1.37,-11.417 4.355,-15.718 5.246,-23.07 1.591,-12.93 -0.297,-22.382 4.285,-22.142 4.582,0.238 5.902,5.008 3.636,17.912 -2.264,12.902 -4.175,16.036 -13.168,27.302 z"
                     id="path1196" />
                  <path
                     fill="#a70000"
                     d="m 534.347,796.052 c -0.929,-9.632 0.851,-13.733 0.26,-19.938 -1.017,-10.917 -4.389,-18.313 -0.396,-18.992 3.993,-0.68 6.013,2.983 6.443,14.006 0.43,11.023 -0.636,13.96 -6.309,24.925 h 0.002 z"
                     id="path1198" />
                  <path
                     fill="#a70000"
                     d="m 571.683,813.107 c -4.06,-8.335 -7.549,-10.82 -10.17,-16.185 -4.63,-9.428 -5.597,-17.127 -9.168,-15.733 -3.571,1.396 -3.374,5.378 1.784,14.607 5.156,9.229 7.487,11.112 17.554,17.311 z"
                     id="path1200" />
                  <path
                     fill="#a70000"
                     d="m 584.604,738.457 c -10.341,-5.443 -15.653,-5.513 -22.317,-9.01 -11.735,-6.134 -18.566,-13.062 -20.99,-9.248 -2.426,3.814 0.812,7.606 12.911,13.181 12.099,5.575 15.815,5.839 30.399,5.078 h -0.003 z"
                     id="path1202" />
                  <path
                     fill="#a70000"
                     d="m 588.392,769.646 c -7.53,-6.264 -11.982,-7.186 -16.839,-11.216 -8.556,-7.071 -12.813,-14.017 -15.672,-11.201 -2.857,2.816 -0.948,6.534 8.032,13.196 8.98,6.662 12.051,7.489 24.479,9.221 z"
                     id="path1204" />
                </g>
              </g>
            </g>
          </g>
        </g>
      </g>
      <g
         aria-label="EMERGENCY"
         id="text3193"
         style="font-weight:bold;font-size:32.2276px;line-height:1.05;font-family:'Poor Richard';-inkscape-font-specification:'Poor Richard Bold';text-align:center;text-anchor:middle;stroke-width:0.532929">
        <path
           d="m 23.483055,47.556159 q 0.802542,0 1.211682,-0.424876 0.424875,-0.424875 0.424875,-1.085793 0,-0.597973 0.267515,-0.944168 0.267514,-0.361931 0.629445,-0.361931 0.361931,0 0.597973,0.330459 0.251778,0.330459 0.251778,0.881223 0,0.550765 0.04721,1.195946 0.04721,0.629446 0.04721,0.865488 0,0.645181 -0.188834,0.834015 -0.173097,0.204569 -0.928431,0.204569 H 13.112943 q -1.337571,0 -1.841128,-0.204569 -0.48782,-0.20457 -0.48782,-0.613709 0,-0.645182 0.89696,-0.645182 1.148738,0 1.494933,-0.361931 0.346194,-0.377667 0.346194,-1.18021 V 31.646929 q 0,-2.328948 -0.07868,-3.084283 -0.07868,-0.755334 -0.393404,-0.959904 -0.314722,-0.220305 -1.25889,-0.220305 -0.566501,0 -0.881224,-0.20457 -0.298986,-0.220306 -0.298986,-0.550765 0,-0.298986 0.267514,-0.519292 0.267514,-0.236042 0.676654,-0.236042 h 12.116822 q 0.723862,0 0.944168,0.298986 0.220306,0.298987 0.314723,0.881224 0.110153,0.582237 0.110153,1.919808 0,0.613709 -0.519293,0.613709 -0.298986,0 -0.535028,-0.173097 -0.220306,-0.188834 -0.503556,-0.912696 -0.267515,-0.739598 -0.566501,-0.944168 -0.283251,-0.20457 -0.660918,-0.20457 h -4.3117 q -1.085793,0 -1.369044,0.314723 -0.28325,0.298986 -0.28325,0.912696 v 3.320324 q 0,1.164473 0.314723,1.542141 0.314722,0.361931 1.274626,0.361931 h 4.185812 q 0.519292,0 0.786806,-0.40914 0.267515,-0.424875 0.267515,-0.944168 0,-0.267514 0.220305,-0.440611 0.220306,-0.188834 0.519293,-0.188834 0.314722,0 0.519292,0.20457 0.20457,0.204569 0.20457,0.582237 0,0.330458 -0.110153,0.959904 -0.09442,0.613709 -0.09442,1.007112 0,0.597973 0.125889,1.258891 0.141625,0.660917 0.141625,0.802543 0,0.361931 -0.236042,0.597973 -0.236042,0.236042 -0.550764,0.236042 -0.330459,0 -0.550765,-0.283251 -0.220306,-0.298986 -0.220306,-0.802542 0,-0.597974 -0.314722,-0.849752 -0.314723,-0.251778 -1.038585,-0.251778 h -4.154339 q -0.566501,0 -0.928432,0.236042 -0.361931,0.220306 -0.361931,0.660918 v 10.055389 q 0,0.786806 0.393403,1.054321 0.40914,0.267514 1.38478,0.267514 z"
           id="path14830" />
        <path
           d="m 48.833964,45.55767 q 0,0.645181 0.298987,1.148738 0.298986,0.48782 1.195946,0.676653 0.912696,0.173098 1.085793,0.361931 0.173098,0.188834 0.173098,0.456348 0,0.283251 -0.251778,0.472084 -0.236042,0.20457 -0.69239,0.20457 -0.346195,0 -1.337572,-0.157361 -0.991376,-0.157362 -1.652294,-0.157362 -0.440611,0 -1.573613,0.157362 -1.133001,0.157361 -1.620822,0.157361 -1.007112,0 -1.007112,-0.739598 0,-0.361931 0.220306,-0.472084 0.220306,-0.125889 0.69239,-0.173098 1.148737,-0.125889 1.431988,-0.424875 0.298986,-0.314723 0.298986,-1.447725 V 32.119013 q 0,-0.865488 -0.07868,-0.865488 -0.110153,0 -0.519293,0.834015 l -2.4391,4.768048 q -1.526405,2.989866 -2.785296,5.318813 -1.243154,2.313212 -1.337571,2.486309 -0.07868,0.173098 -0.188834,0.283251 -0.110153,0.110153 -0.346195,0.110153 -0.393403,0 -0.708126,-0.613709 L 31.823205,32.795666 q -0.40914,-0.818279 -0.503556,-0.818279 -0.07868,0 -0.07868,0.818279 v 13.344241 q 0,0.582237 0.503556,0.97564 0.503556,0.377667 0.97564,0.377667 1.321836,0 1.321836,0.739599 0,0.676653 -1.148738,0.676653 -0.188834,0 -1.070057,-0.173097 -0.865488,-0.173098 -1.227419,-0.173098 -0.472084,0 -1.306099,0.188834 -0.818279,0.188834 -1.164473,0.188834 -0.503557,0 -0.818279,-0.267515 -0.314723,-0.251778 -0.314723,-0.535028 0,-0.283251 0.361931,-0.48782 0.377667,-0.220306 0.865487,-0.220306 1.542141,0 1.542141,-1.809656 V 29.16062 q 0,-0.645182 -0.409139,-1.10153 -0.40914,-0.472084 -1.164474,-0.566501 -0.755334,-0.110152 -0.991376,-0.330458 -0.236042,-0.220306 -0.236042,-0.550765 0,-0.236042 0.298986,-0.424876 0.314723,-0.188833 0.629446,-0.188833 0.330458,0 0.818278,0.141625 0.487821,0.125889 0.786807,0.125889 0.298987,0 0.755334,-0.125889 0.456348,-0.141625 0.739599,-0.141625 0.377667,0 0.597973,0.298986 0.236042,0.298987 0.645181,1.195946 l 3.572102,7.207149 2.989866,5.995467 q 0.188833,0.377667 0.28325,0.377667 0.110153,0 0.28325,-0.346195 4.862465,-9.126957 6.813746,-12.966573 0.582237,-1.133002 0.991376,-1.431988 0.424876,-0.298987 0.89696,-0.298987 0.220306,0 0.739598,0.06294 0.519293,0.06294 0.786807,0.06294 0.251778,0 0.629445,-0.07868 0.393403,-0.07868 0.48782,-0.07868 0.849751,0 0.849751,0.676654 0,0.550764 -0.818279,0.550764 -0.676653,0 -1.180209,0.48782 -0.503557,0.472084 -0.61371,0.69239 -0.110153,0.20457 -0.110153,1.007113 z"
           id="path14832" />
        <path
           d="m 64.585834,47.556159 q 0.802543,0 1.211682,-0.424876 0.424876,-0.424875 0.424876,-1.085793 0,-0.597973 0.267514,-0.944168 0.267514,-0.361931 0.629445,-0.361931 0.361931,0 0.597973,0.330459 0.251779,0.330459 0.251779,0.881223 0,0.550765 0.04721,1.195946 0.04721,0.629446 0.04721,0.865488 0,0.645181 -0.188833,0.834015 -0.173098,0.204569 -0.928432,0.204569 H 54.215722 q -1.337571,0 -1.841127,-0.204569 -0.48782,-0.20457 -0.48782,-0.613709 0,-0.645182 0.896959,-0.645182 1.148738,0 1.494933,-0.361931 0.346195,-0.377667 0.346195,-1.18021 V 31.646929 q 0,-2.328948 -0.07868,-3.084283 -0.07868,-0.755334 -0.393403,-0.959904 -0.314723,-0.220305 -1.258891,-0.220305 -0.566501,0 -0.881223,-0.20457 -0.298987,-0.220306 -0.298987,-0.550765 0,-0.298986 0.267515,-0.519292 0.267514,-0.236042 0.676653,-0.236042 h 12.116823 q 0.723862,0 0.944168,0.298986 0.220305,0.298987 0.314722,0.881224 0.110153,0.582237 0.110153,1.919808 0,0.613709 -0.519292,0.613709 -0.298987,0 -0.535029,-0.173097 -0.220306,-0.188834 -0.503556,-0.912696 -0.267514,-0.739598 -0.566501,-0.944168 -0.28325,-0.20457 -0.660917,-0.20457 h -4.311701 q -1.085793,0 -1.369043,0.314723 -0.283251,0.298986 -0.283251,0.912696 v 3.320324 q 0,1.164473 0.314723,1.542141 0.314723,0.361931 1.274627,0.361931 h 4.185811 q 0.519292,0 0.786807,-0.40914 0.267514,-0.424875 0.267514,-0.944168 0,-0.267514 0.220306,-0.440611 0.220306,-0.188834 0.519292,-0.188834 0.314723,0 0.519293,0.20457 0.204569,0.204569 0.204569,0.582237 0,0.330458 -0.110153,0.959904 -0.09442,0.613709 -0.09442,1.007112 0,0.597973 0.125889,1.258891 0.141625,0.660917 0.141625,0.802543 0,0.361931 -0.236042,0.597973 -0.236042,0.236042 -0.550765,0.236042 -0.330459,0 -0.550764,-0.283251 -0.220306,-0.298986 -0.220306,-0.802542 0,-0.597974 -0.314723,-0.849752 -0.314723,-0.251778 -1.038585,-0.251778 h -4.154339 q -0.566501,0 -0.928432,0.236042 -0.361931,0.220306 -0.361931,0.660918 v 10.055389 q 0,0.786806 0.393404,1.054321 0.409139,0.267514 1.384779,0.267514 z"
           id="path14834" />
        <path
           d="m 70.927495,28.672799 q 0,-1.195946 -1.636558,-1.290362 -1.133001,-0.06294 -1.133001,-0.739599 0,-0.708126 1.290363,-0.708126 0.613709,0 1.353307,0.110153 0.739598,0.110153 1.258891,0.110153 0.346195,0 1.919808,-0.220306 1.573613,-0.220306 2.423365,-0.220306 3.241643,0 5.255868,1.668031 2.029961,1.66803 2.029961,4.327436 0,1.699502 -1.007112,2.816768 -0.991377,1.101529 -3.430477,2.045697 -0.456348,0.173098 -0.456348,0.361931 0,0.125889 0.188833,0.40914 0.865488,1.227418 3.25738,5.318813 2.391892,4.075658 2.549253,4.264492 0.157362,0.173097 0.834015,0.409139 0.676654,0.220306 0.849752,0.456348 0.188833,0.220306 0.188833,0.503556 0,0.361931 -0.472084,0.613709 -0.472084,0.267515 -0.755334,0.267515 -0.723862,0 -1.762447,-0.550765 -1.038585,-0.566501 -1.369044,-0.959904 -0.613709,-0.786807 -4.012714,-6.420342 -1.589349,-2.627935 -1.825391,-2.958393 -0.849751,-1.227419 -1.66803,-1.573614 -0.20457,-0.07868 -0.267514,-0.157361 -0.06294,-0.09442 -0.06294,-0.377667 0,-0.676654 0.818279,-0.676654 0.07868,0 0.440612,0.06294 0.361931,0.04721 0.708126,0.04721 1.730974,0 2.895448,-1.117265 1.164474,-1.117266 1.164474,-3.115755 0,-1.416252 -1.306099,-2.816768 -1.306099,-1.400515 -3.619311,-1.400515 -0.865487,0 -1.274626,0.204569 -0.393404,0.188834 -0.503557,0.48782 -0.09442,0.283251 -0.09442,0.755335 v 17.624469 q 0,0.519292 0.440611,0.849751 0.456348,0.314723 1.18021,0.314723 0.786807,0 1.054321,0.204569 0.267515,0.20457 0.267515,0.597973 0,0.377667 -0.346195,0.629446 -0.330459,0.251778 -1.007113,0.251778 -0.613709,0 -1.510669,-0.361931 -0.881223,-0.346195 -1.400515,-0.346195 -0.440612,0 -1.321836,0.330459 -0.881223,0.346194 -1.384779,0.346194 -1.447725,0 -1.447725,-0.912695 0,-0.346195 0.236042,-0.503556 0.236042,-0.173098 1.18021,-0.173098 0.566501,0 0.928432,-0.251778 0.361931,-0.251778 0.361931,-0.613709 z"
           id="path14836" />
        <path
           d="m 107.02619,40.112968 q 0.55076,0 0.75533,0.110153 0.22031,0.09442 0.22031,0.440612 0,0.346195 -0.3934,0.739598 -0.37767,0.377667 -0.37767,1.070057 v 1.290363 q 0,0.519292 0.29898,0.818279 0.31473,0.298986 0.31473,0.535028 0,0.645182 -1.38478,1.636558 -1.36905,0.991376 -3.46195,1.699502 -2.09291,0.69239 -4.028452,0.69239 -4.909673,0 -8.450303,-3.241643 -3.524894,-3.25738 -3.524894,-8.654873 0,-3.147227 1.431988,-5.853842 1.447724,-2.706614 4.012714,-4.217283 2.56499,-1.526405 5.759425,-1.526405 3.100022,0 5.743692,1.133001 2.64367,1.117266 2.64367,2.502046 v 1.25889 q 0,0.188834 0.0787,0.582237 0.0787,0.377667 0.0787,0.708126 0,0.314723 -0.15736,0.550765 -0.14163,0.220306 -0.39341,0.220306 -0.26751,0 -0.50355,-0.20457 -0.23605,-0.220306 -0.69239,-1.18021 -0.86549,-1.793919 -1.80966,-2.596462 -1.65229,-1.400516 -4.594949,-1.400516 -3.729464,0 -5.979731,2.722351 -2.23453,2.722351 -2.23453,7.144204 0,5.035563 2.423364,7.77365 2.423365,2.722351 6.247245,2.722351 1.982751,0 3.682251,-0.786807 1.69951,-0.802542 1.69951,-2.328947 v -2.124378 q 0,-0.771071 -1.44773,-0.771071 -0.25178,0 -0.7868,0.03147 -0.5193,0.03147 -0.7396,0.03147 -0.59798,0 -0.92843,-0.236042 -0.33046,-0.236042 -0.33046,-0.613709 0,-0.676654 0.91269,-0.676654 z"
           id="path14838" />
        <path
           d="m 121.45621,47.556159 q 0.80255,0 1.21169,-0.424876 0.42487,-0.424875 0.42487,-1.085793 0,-0.597973 0.26752,-0.944168 0.26751,-0.361931 0.62944,-0.361931 0.36193,0 0.59797,0.330459 0.25178,0.330459 0.25178,0.881223 0,0.550765 0.0472,1.195946 0.0472,0.629446 0.0472,0.865488 0,0.645181 -0.18883,0.834015 -0.1731,0.204569 -0.92844,0.204569 H 111.0861 q -1.33757,0 -1.84112,-0.204569 -0.48782,-0.20457 -0.48782,-0.613709 0,-0.645182 0.89695,-0.645182 1.14874,0 1.49494,-0.361931 0.34619,-0.377667 0.34619,-1.18021 V 31.646929 q 0,-2.328948 -0.0787,-3.084283 -0.0787,-0.755334 -0.3934,-0.959904 -0.31472,-0.220305 -1.25889,-0.220305 -0.5665,0 -0.88123,-0.20457 -0.29898,-0.220306 -0.29898,-0.550765 0,-0.298986 0.26751,-0.519292 0.26752,-0.236042 0.67666,-0.236042 h 12.11682 q 0.72386,0 0.94417,0.298986 0.2203,0.298987 0.31472,0.881224 0.11015,0.582237 0.11015,1.919808 0,0.613709 -0.51929,0.613709 -0.29899,0 -0.53503,-0.173097 -0.22031,-0.188834 -0.50356,-0.912696 -0.26751,-0.739598 -0.5665,-0.944168 -0.28325,-0.20457 -0.66091,-0.20457 h -4.3117 q -1.0858,0 -1.36905,0.314723 -0.28325,0.298986 -0.28325,0.912696 v 3.320324 q 0,1.164473 0.31472,1.542141 0.31473,0.361931 1.27463,0.361931 h 4.18581 q 0.51929,0 0.78681,-0.40914 0.26751,-0.424875 0.26751,-0.944168 0,-0.267514 0.22031,-0.440611 0.22031,-0.188834 0.51929,-0.188834 0.31472,0 0.51929,0.20457 0.20457,0.204569 0.20457,0.582237 0,0.330458 -0.11015,0.959904 -0.0944,0.613709 -0.0944,1.007112 0,0.597973 0.12589,1.258891 0.14163,0.660917 0.14163,0.802543 0,0.361931 -0.23604,0.597973 -0.23605,0.236042 -0.55077,0.236042 -0.33046,0 -0.55076,-0.283251 -0.22031,-0.298986 -0.22031,-0.802542 0,-0.597974 -0.31472,-0.849752 -0.31472,-0.251778 -1.03859,-0.251778 h -4.15434 q -0.5665,0 -0.92843,0.236042 -0.36193,0.220306 -0.36193,0.660918 v 10.055389 q 0,0.786806 0.3934,1.054321 0.40914,0.267514 1.38478,0.267514 z"
           id="path14840" />
        <path
           d="m 142.14924,28.940314 q 0,-0.645182 -0.45635,-1.022849 -0.44061,-0.393403 -1.133,-0.393403 -0.53503,0 -0.86549,-0.188834 -0.33046,-0.188833 -0.33046,-0.48782 0,-0.361931 0.29899,-0.566501 0.31472,-0.220306 0.67665,-0.220306 0.18883,0 1.27463,0.20457 1.10153,0.188834 1.46346,0.188834 0.47208,0 1.24315,-0.141626 0.78681,-0.157361 1.133,-0.157361 0.94417,0 0.94417,0.755335 0,0.613709 -0.94417,0.613709 -0.81827,0 -1.21168,0.251778 -0.37767,0.251778 -0.47208,0.613709 -0.0787,0.346195 -0.0787,0.89696 v 15.70466 q 0,1.573613 0.33046,2.423365 0.34619,0.849751 0.34619,1.369043 0,0.48782 -0.42487,0.48782 -0.29899,0 -0.45635,-0.125889 -0.15736,-0.125889 -0.47209,-0.550764 L 129.92226,31.253525 q -0.20457,-0.267514 -0.37767,-0.267514 -0.23604,0 -0.23604,0.597973 v 14.555923 q 0,0.660917 0.55077,1.054321 0.5665,0.393403 1.07005,0.393403 1.25889,0 1.25889,0.818279 0,0.251778 -0.14162,0.409139 -0.14163,0.157362 -0.66092,0.157362 -0.50355,0 -1.51067,-0.141625 -1.00711,-0.141626 -1.3061,-0.141626 -0.40914,0 -1.38478,0.141626 -0.97564,0.141625 -1.22741,0.141625 -0.80255,0 -0.80255,-0.739598 0,-0.61371 0.94417,-0.61371 0.77107,0 1.22742,-0.424875 0.47208,-0.440612 0.47208,-1.243155 V 29.16062 q 0,-0.771071 -0.3934,-1.227419 -0.3934,-0.456348 -0.99138,-0.456348 -0.80254,0 -1.08579,-0.173097 -0.26751,-0.173098 -0.26751,-0.535029 0,-0.645181 0.80254,-0.645181 0.14162,0 0.70812,0.09442 0.56651,0.07868 0.94417,0.07868 0.28325,0 0.66092,-0.07868 0.3934,-0.09442 0.66092,-0.09442 0.45635,0 1.11726,0.739598 0.67666,0.739598 4.57922,5.963994 l 6.93963,9.284319 q 0.1731,0.236042 0.33046,0.236042 0.3462,0 0.3462,-0.849751 z"
           id="path14842" />
        <path
           d="m 167.27984,43.936848 q 0.23604,0 0.40914,0.188834 0.1731,0.173097 0.1731,0.314723 0,0.550764 -1.27463,1.762446 -1.25889,1.195947 -3.30459,2.061434 -2.04569,0.849751 -4.32743,0.849751 -3.68226,0 -6.40461,-1.605086 -2.70661,-1.605085 -4.15434,-4.469061 -1.44772,-2.863976 -1.44772,-5.948259 0,-3.084282 1.41625,-5.77516 1.41625,-2.706615 4.02845,-4.217284 2.6122,-1.510669 6.05841,-1.510669 2.20306,0 4.05992,0.582237 1.8726,0.566501 2.94266,1.38478 1.08579,0.818279 1.08579,1.243154 0,0.660918 -0.0315,1.195947 -0.0315,0.535028 -0.0315,0.645181 0,0.188834 0.11015,0.582237 0.11015,0.377667 0.11015,0.708126 0,0.519292 -0.64518,0.519292 -0.20457,0 -0.40914,-0.188833 -0.20457,-0.188834 -0.59797,-1.054321 -0.83402,-1.841128 -1.79392,-2.675143 -1.68377,-1.46346 -4.7051,-1.46346 -3.88683,0 -6.05841,2.832504 -2.15585,2.816768 -2.15585,7.285829 0,4.862465 2.34468,7.694969 2.34468,2.816768 6.32592,2.816768 1.02285,0 3.21018,-0.676654 2.20305,-0.69239 4.34317,-2.659406 0.47208,-0.424876 0.72386,-0.424876 z"
           id="path14844" />
        <path
           d="m 179.64844,36.084518 q 0.14163,-0.06295 0.29899,-0.314723 l 0.3934,-0.645181 q 4.04419,-6.451815 4.04419,-7.191413 0,-0.220306 -0.15736,-0.346195 -0.15737,-0.125889 -0.84976,-0.157361 -0.67665,-0.03147 -0.88122,-0.220306 -0.20457,-0.188834 -0.20457,-0.503556 0,-0.346195 0.39341,-0.535029 0.3934,-0.204569 0.86548,-0.204569 0.40914,0 1.24316,0.157361 0.83401,0.141625 1.27462,0.141625 0.39341,0 1.13301,-0.125889 0.75533,-0.141625 1.11726,-0.141625 0.3934,0 0.72386,0.188833 0.3462,0.188834 0.3462,0.487821 0,0.77107 -1.16448,0.77107 -0.80254,0 -1.43198,0.393403 -0.62945,0.393404 -1.33758,1.605086 l -0.81827,1.353307 q -4.40612,7.238621 -4.40612,7.836595 v 6.735064 q 0,1.557878 0.20457,1.904072 0.2203,0.346195 0.86549,0.503557 0.66091,0.157361 0.7868,0.314722 0.14163,0.157362 0.14163,0.377668 0,0.314722 -0.25178,0.519292 -0.25178,0.220306 -0.58224,0.220306 -0.40914,0 -1.18021,-0.157362 -0.75533,-0.141625 -1.18021,-0.141625 -0.3934,0 -1.133,0.141625 -0.72386,0.157362 -1.08579,0.157362 -0.50356,0 -0.88123,-0.188834 -0.37766,-0.188833 -0.37766,-0.519292 0,-0.267514 0.14162,-0.456348 0.14163,-0.20457 0.70813,-0.298987 0.5665,-0.110152 0.77107,-0.330458 0.2203,-0.220306 0.25178,-0.456348 0.0315,-0.236042 0.0315,-1.164474 v -7.553344 q 0,-0.330459 -0.18883,-0.597973 l -5.71222,-8.135581 q -0.75534,-1.05432 -1.27463,-1.494932 -0.51929,-0.456348 -1.40051,-0.456348 -1.0858,0 -1.0858,-0.786807 0,-0.739598 1.05432,-0.739598 0.53503,0 1.57362,0.157361 1.05432,0.141626 1.58935,0.141626 0.44061,0 1.33757,-0.141626 0.91269,-0.157361 1.36904,-0.157361 1.54214,0 1.54214,0.739598 0,0.298987 -0.20457,0.48782 -0.18883,0.173098 -0.88122,0.251779 -0.67665,0.07868 -0.84975,0.220305 -0.15736,0.125889 -0.15736,0.330459 0,0.535029 2.53351,3.918297 0.3462,0.472084 1.60509,2.297476 1.25889,1.809655 1.33757,1.809655 z"
           id="path14846" />
      </g>
      <path
         id="rect11109"
         style="fill:#060000;stroke-width:1.738;stroke-linecap:round;stroke-linejoin:round;paint-order:markers fill stroke"
         d="M 18.520833,174.625 H 182.56249 c 1.4658,0 2.64584,1.18004 2.64584,2.64583 0,1.46579 -1.18004,2.64584 -2.64584,2.64584 H 18.520833 c -1.465791,0 -2.645833,-1.18005 -2.645833,-2.64584 0,-1.46579 1.180042,-2.64583 2.645833,-2.64583 z" />
    </g>
  </g>
</svg>
